<svg xmlns="http://www.w3.org/2000/svg" width="80" height="80" viewBox="0 0 80 80" version="1.1">
    <path d="M 33.366 7.334 C 32.548 7.792, 31.231 7.919, 30.439 7.615 C 29.648 7.311, 29 7.499, 29 8.031 C 29 8.564, 28.401 9, 27.669 9 C 26.937 9, 25.736 10.125, 25 11.500 C 24.264 12.875, 23.305 14, 22.870 14 C 22.434 14, 21.578 15.854, 20.968 18.120 C 19.648 23.020, 20.989 30.008, 24.589 37 C 27.038 41.754, 27.694 41.954, 25.970 37.421 C 23.282 30.350, 30.801 23, 40.724 23 C 46.637 23, 49.769 24.426, 54.455 29.251 C 56.789 31.654, 57.708 33.400, 57.354 34.755 C 56.671 37.367, 61.367 46.539, 64.407 48.531 C 66.586 49.959, 66.683 50.337, 65.508 52.799 C 64.799 54.284, 63.495 57.077, 62.611 59.005 C 61.109 62.282, 58.851 63.843, 53.250 65.478 C 52.013 65.839, 51 66.554, 51 67.067 C 51 67.580, 50.073 68, 48.941 68 C 47.809 68, 47.160 68.450, 47.500 69 C 47.840 69.550, 47.641 70, 47.059 70 C 46.477 70, 46 69.084, 46 67.965 C 46 66.845, 45.264 64.806, 44.365 63.434 C 42.246 60.200, 43.234 59.234, 45.917 61.917 C 48.435 64.435, 52.012 64.924, 49.977 62.473 C 48.920 61.198, 49.245 60.279, 51.937 56.929 C 53.712 54.720, 55.578 51.472, 56.082 49.713 C 58.343 41.831, 56.112 34.287, 52.221 36.658 C 51.048 37.373, 49.782 37.475, 48.911 36.924 C 46.566 35.439, 45 35.884, 45 38.035 C 45 39.723, 44.676 39.897, 43.105 39.056 C 41.694 38.301, 40.892 38.426, 39.963 39.545 C 39.276 40.372, 38.478 40.811, 38.189 40.522 C 37.899 40.232, 36.761 40.784, 35.659 41.748 C 34.558 42.712, 33.966 42.969, 34.344 42.319 C 34.723 41.670, 34.613 40.879, 34.101 40.562 C 33.588 40.245, 32.680 42.265, 32.083 45.051 C 31.007 50.066, 31.032 50.157, 34.689 54.533 C 38.540 59.139, 40.018 59.771, 37.965 55.934 C 36.920 53.982, 36.984 53.780, 38.465 54.348 C 39.399 54.707, 40.828 55, 41.641 55 C 42.453 55, 42.835 55.457, 42.490 56.016 C 42.144 56.575, 41.446 56.776, 40.938 56.461 C 40.429 56.147, 40.050 56.927, 40.095 58.195 C 40.176 60.463, 38.301 66.221, 36.633 68.831 C 36.097 69.669, 34.865 69.932, 33.307 69.541 C 31.715 69.141, 31.062 69.291, 31.475 69.960 C 31.829 70.532, 33.147 71, 34.404 71 C 35.661 71, 37.494 71.888, 38.477 72.974 C 40.150 74.823, 40.158 75.109, 38.609 77.474 C 37.213 79.605, 37.183 80, 38.418 80 C 39.223 80, 40.160 79.550, 40.500 79 C 40.840 78.450, 41.793 78, 42.618 78 C 43.443 78, 43.840 78.450, 43.500 79 C 43.128 79.601, 44.439 80, 46.789 80 C 50.385 80, 50.841 79.679, 52.514 75.970 C 53.513 73.754, 57.642 68.794, 61.690 64.950 C 68.093 58.868, 68.911 57.702, 67.989 55.980 C 67.359 54.802, 67.315 54, 67.881 54 C 68.405 54, 69.045 54.562, 69.303 55.250 C 69.577 55.980, 70.183 55.460, 70.760 54 C 71.304 52.625, 71.391 51.270, 70.953 50.990 C 70.516 50.709, 69.849 49.247, 69.471 47.740 C 68.942 45.631, 69.142 45, 70.342 45 C 71.199 45, 72.314 45.739, 72.819 46.642 C 73.442 47.755, 74.581 48.122, 76.358 47.782 L 78.978 47.281 75.592 51.030 C 73.729 53.092, 71.927 55.656, 71.586 56.728 C 71.246 57.800, 67.971 61.108, 64.309 64.079 C 58.504 68.789, 52 76.777, 52 79.196 C 52 79.638, 52.900 80, 54 80 C 55.100 80, 56 79.534, 56 78.965 C 56 78.251, 56.601 78.251, 57.934 78.965 C 58.998 79.534, 62.448 80, 65.601 80 C 71.335 80, 72.484 79.367, 67.992 78.681 C 64.489 78.146, 64.442 76.309, 67.918 75.799 C 69.827 75.519, 71.108 75.840, 71.430 76.679 C 71.709 77.405, 72.626 78, 73.469 78 C 74.311 78, 75 78.450, 75 79 C 75 79.550, 75.498 80, 76.107 80 C 76.727 80, 76.946 79.230, 76.605 78.250 C 76.052 76.663, 76.127 76.669, 77.408 78.319 C 78.775 80.078, 78.839 80.078, 79.355 78.319 C 80.004 76.105, 80.364 60.166, 80.079 46.261 C 79.890 37.035, 79.656 35.873, 77.712 34.511 C 74.936 32.567, 70.699 32.587, 66.879 34.563 C 64.362 35.864, 63.575 35.906, 62.178 34.813 C 59.788 32.943, 59.033 31.743, 59.015 29.788 C 58.980 25.792, 54.629 16.898, 50.497 12.375 C 48.048 9.694, 46.034 8.132, 46.022 8.905 C 46.005 9.982, 45.534 9.889, 44.006 8.505 C 41.897 6.597, 35.865 5.933, 33.366 7.334 M 37.088 27.394 C 35.592 29.196, 38.184 32.007, 41.321 31.985 C 42.810 31.974, 43.098 31.714, 42.231 31.164 C 41.314 30.582, 41.694 29.966, 43.604 28.944 L 46.246 27.530 43.873 26.865 C 40.016 25.783, 38.315 25.916, 37.088 27.394 M 27.604 33.155 C 26.509 34.719, 26.369 35.821, 27.095 37.178 C 27.991 38.852, 28.254 38.888, 29.619 37.524 C 31.596 35.547, 32.621 35.547, 30.981 37.523 C 29.924 38.797, 29.987 38.942, 31.367 38.413 C 33.192 37.712, 34.557 33.711, 33.535 32.057 C 32.437 30.279, 29.198 30.879, 27.604 33.155 M 39.863 44.981 C 37.965 46.794, 36.991 48.535, 37.351 49.471 C 38.159 51.579, 40.278 51.387, 41.721 49.075 C 42.383 48.016, 43.953 47.003, 45.212 46.825 C 46.608 46.626, 47.613 45.709, 47.791 44.471 C 48.268 41.141, 43.565 41.443, 39.863 44.981 M 46.292 50.451 C 45.336 51.539, 45.427 52.104, 46.729 53.163 C 48.155 54.321, 48.287 54.266, 47.719 52.750 C 47.358 51.788, 47.451 51, 47.924 51 C 48.398 51, 49.064 51.726, 49.405 52.613 C 49.906 53.919, 50.307 53.990, 51.512 52.990 C 52.330 52.311, 52.993 51.248, 52.985 50.628 C 52.975 49.948, 52.634 50.030, 52.124 50.834 C 51.443 51.908, 51.160 51.859, 50.671 50.584 C 49.930 48.655, 47.924 48.593, 46.292 50.451" stroke="none" fill="#000000" fill-rule="evenodd"/>
</svg>