<?xml version="1.0" encoding="UTF-8"?>
<svg version="1.1" xmlns="http://www.w3.org/2000/svg" width="529" height="442">
<path d="M0 0 C174.57 0 349.14 0 529 0 C529 145.86 529 291.72 529 442 C354.43 442 179.86 442 0 442 C0 296.14 0 150.28 0 0 Z " fill="#FEFEFE" transform="translate(0,0)"/>
<path d="M0 0 C174.57 0 349.14 0 529 0 C529 145.86 529 291.72 529 442 C354.43 442 179.86 442 0 442 C0 296.14 0 150.28 0 0 Z M298 19 C295.80713194 19.89312176 293.60046172 20.75400948 291.375 21.5625 C287.11370794 23.16048452 283.0494441 24.85772873 279.0234375 26.97265625 C276.55570008 28.22558085 274.03335615 29.32351736 271.5 30.4375 C267.32544588 32.31084562 263.53328807 34.43737659 259.7109375 36.94140625 C257.57784925 38.26119373 255.33284755 39.09278151 253 40 C252.4227417 40.51151611 251.8454834 41.02303223 251.25073242 41.55004883 C248.22005296 43.50245205 246.32232774 43.25782506 242.73828125 43.07421875 C242.09991837 43.04755127 241.46155548 43.02088379 240.80384827 42.9934082 C239.39189401 42.93423244 237.98019646 42.86868376 236.56878662 42.79769897 C232.57739019 42.60275575 228.58376001 42.47510708 224.58984375 42.34375 C223.70351257 42.31399582 222.8171814 42.28424164 221.9039917 42.25358582 C210.32392139 41.885266 198.7419455 41.76429993 187.15658569 41.70986938 C184.660616 41.69510486 182.16467852 41.67262051 179.66885376 41.64193726 C159.96753123 41.4062514 142.84280847 41.77926946 126 53 C123.90454229 54.26454511 121.80032425 55.5146899 119.6875 56.75 C118.19669922 57.62591797 118.19669922 57.62591797 116.67578125 58.51953125 C114 60 114 60 110.375 61.4375 C106.29903432 63.32452115 103.25838808 65.83239387 99.80859375 68.68359375 C96.72854409 71.22388506 93.59851733 73.68677626 90.4375 76.125 C89.88126953 76.55498291 89.32503906 76.98496582 88.75195312 77.42797852 C85.70483589 79.76233293 82.61697237 81.94694415 79.375 84 C70.37932057 89.898266 63.35420632 97.29608352 57.16796875 106.04296875 C55.52828083 108.27944398 53.88431397 110.29496815 52.05078125 112.359375 C41.68195229 124.33572368 37.13234573 138.69560001 33.56469727 153.84375 C33 156 33 156 31.87109375 158.67578125 C30.65558201 161.9189628 30.67623878 164.92147716 30.5625 168.375 C30.17688963 177.01508246 28.89099549 185.49084715 26.47216797 193.81689453 C23.38534018 208.08908384 25.45781873 226.05893515 28.125 240.25 C28.31271973 241.28850098 28.50043945 242.32700195 28.69384766 243.39697266 C30.0023961 249.65005957 32.1365829 254.35942001 35.59570312 259.71337891 C37.56082599 262.91319476 38.58363621 265.97203778 39.6875 269.5625 C39.89044678 270.2023584 40.09339355 270.8422168 40.30249023 271.50146484 C41.17393435 274.25460206 42.00580183 277.01933039 42.8359375 279.78515625 C43.07570313 280.55730469 43.31546875 281.32945312 43.5625 282.125 C43.74941406 282.76695312 43.93632813 283.40890625 44.12890625 284.0703125 C44.97170713 286.16809786 44.97170713 286.16809786 46.85302734 288.21582031 C49.14337363 291.18592596 50.62772803 294.08584699 52.22265625 297.4765625 C55.77237124 304.78953091 59.89520954 311.6306188 64.4375 318.375 C64.83319183 318.96662933 65.22888367 319.55825867 65.63656616 320.16781616 C74.4462864 333.21208731 85.16655234 343.89761172 96.58642578 354.64233398 C98.63324594 356.64174146 100.48125026 358.65809994 102.29296875 360.8671875 C104.99389137 364.14034359 107.99366876 366.45174721 111.5 368.8125 C112.75447344 369.67626016 114.00836504 370.54086587 115.26171875 371.40625 C116.2060376 372.05400391 116.2060376 372.05400391 117.16943359 372.71484375 C118.85951627 373.90137285 120.50458607 375.15133543 122.14453125 376.40625 C154.17690256 400.73663314 200.52649158 418.65536063 240.73828125 421.12109375 C241.71724617 421.18278275 241.71724617 421.18278275 242.71598816 421.245718 C259.4118342 422.27609903 276.11758277 422.34013782 292.83984375 422.31567383 C297.18152248 422.30980168 301.52278526 422.32707452 305.86439514 422.3500185 C309.28086732 422.36485481 312.69724032 422.36561584 316.11373901 422.36250877 C317.71459803 422.36301377 319.31546386 422.36809228 320.91629028 422.37832069 C336.52840651 422.46616658 350.03448663 419.80208371 364.6875 414.125 C365.80705078 413.70347656 366.92660156 413.28195312 368.08007812 412.84765625 C371.39699656 411.59011152 374.6985698 410.29757458 378 409 C379.61189209 408.39430176 379.61189209 408.39430176 381.25634766 407.77636719 C386.74438157 405.63990214 390.90920353 403.56511446 395.18408203 399.52636719 C398.96919515 396.3447959 403.54362419 394.33735692 407.9375 392.125 C408.95513428 391.59890137 409.97276855 391.07280273 411.02124023 390.53076172 C415.4944001 388.22874758 419.97092799 385.97706483 424.5703125 383.9375 C437.53843334 378.11438343 446.09896717 368.8312394 455.10546875 358.0234375 C457.15322778 355.83634641 459.38160474 353.93300535 461.65625 351.98730469 C469.16715136 345.48781448 473.60800003 338.60734338 478.04345703 329.78222656 C479 328 479 328 481.12109375 324.8359375 C483.98654126 320.51095851 485.40864457 315.91082341 487 311 C487.33 309.98164063 487.66 308.96328125 488 307.9140625 C492.3363083 293.65167347 494.99328123 278.87542081 496.31689453 264.03613281 C496.62637494 260.7038757 497.06282517 257.78421585 498.00537109 254.546875 C499.45663302 248.84791416 499.36343695 243.12003142 499.40625 237.26953125 C499.41765015 236.04328537 499.42905029 234.81703949 499.4407959 233.55363464 C499.45964174 230.95904963 499.47274229 228.36441734 499.48046875 225.76977539 C499.49971764 221.86971004 499.56174112 217.97182974 499.625 214.07226562 C499.74668074 199.55955056 498.54801118 187.02356318 493.74565125 173.30967712 C492.67222933 169.98472049 491.90931112 166.60835962 491.15434265 163.19908142 C487.87353316 148.40730341 481.67120388 135.53473481 473.9375 122.58984375 C471.65487332 118.56910144 470.08223306 114.3107177 468.4375 110 C466.012413 103.71644123 463.95095749 99.61724867 458 96 C457.34 96 456.68 96 456 96 C456.09152344 94.99582031 456.18304688 93.99164063 456.27734375 92.95703125 C455.93254978 88.03764682 454.36989164 85.60904962 451.5625 81.6875 C451.10875 81.03378418 450.655 80.38006836 450.1875 79.70654297 C443.52864558 70.28630428 435.65668409 62.57288371 427 55 C426.25878906 54.3090625 425.51757812 53.618125 424.75390625 52.90625 C420.05852243 48.55402257 415.21760424 45.11743485 409.75390625 41.7890625 C406.97901558 39.98636757 404.5242176 38.01118415 402 35.875 C394.75862536 29.94919895 386.37527454 26.9906385 377.60546875 23.9921875 C375 23 375 23 372.15234375 21.484375 C368.56669724 19.79596648 365.26928215 19.08517971 361.375 18.375 C354.08538714 17.02183833 354.08538714 17.02183833 352.01733398 16.49291992 C341.41343812 13.90194016 329.7964289 13.76151108 318.9375 13.5625 C317.9993042 13.52825928 317.0611084 13.49401855 316.09448242 13.45874023 C308.88917737 13.41339975 304.21042463 15.53707529 298 19 Z " fill="#FEFEFE" transform="translate(0,0)"/>
<path d="M0 0 C0 0.99 0 1.98 0 3 C-2.5 5.1875 -2.5 5.1875 -5 7 C-4.31292969 7.04898438 -3.62585938 7.09796875 -2.91796875 7.1484375 C-2.01691406 7.22320312 -1.11585938 7.29796875 -0.1875 7.375 C0.70582031 7.44460937 1.59914062 7.51421875 2.51953125 7.5859375 C5 8 5 8 8 10 C9.88556852 10.35197279 11.78428676 10.63618451 13.6875 10.875 C18.29037691 11.58355742 21.66808894 12.58519556 25.67578125 14.87890625 C28.21544558 16.10392081 30.79610187 16.8721902 33.49829102 17.65966797 C40.97375006 19.8642856 46.23814379 22.61798561 51 29 C54.07588126 35.15176253 52.74468897 45.31398812 52 52 C50.65053226 55.836344 48.83009922 58.13859437 46 61 C45.45859375 61.72316406 44.9171875 62.44632813 44.359375 63.19140625 C40.24189714 68.56914018 36.58579549 70.5134936 30 72 C25.13391039 72.44652493 20.27735704 72.47177533 15.39453125 72.46875 C13.98361416 72.47587109 12.57269989 72.48357284 11.16178894 72.49182129 C8.21414129 72.50520503 5.26676115 72.50686395 2.3190918 72.50097656 C-1.41833507 72.49510297 -5.15445276 72.52560119 -8.89162731 72.56609344 C-11.80459746 72.59222729 -14.71726368 72.59482468 -17.63033485 72.59120178 C-19.00596705 72.59287092 -20.3816168 72.60229507 -21.75713158 72.62034607 C-31.56388586 72.73484834 -40.23804476 71.54938828 -49 67 C-50.78410339 64.98278809 -50.78410339 64.98278809 -52 63 C-52.556875 62.195625 -53.11375 61.39125 -53.6875 60.5625 C-55.67947561 55.15570906 -55.42462364 49.70792158 -55 44 C-54.505 43.505 -54.505 43.505 -54 43 C-54.01160156 42.01257813 -54.02320313 41.02515625 -54.03515625 40.0078125 C-54.08669198 32.68973854 -53.77855696 27.8318897 -48.8125 22.0625 C-42.97608339 16.40397127 -36.20742048 12.6244809 -29 9 C-29.99 8.34 -30.98 7.68 -32 7 C-30.43359375 5.00390625 -30.43359375 5.00390625 -28 3 C-24.78515625 2.71484375 -24.78515625 2.71484375 -21.0625 2.9375 C-13.67356298 3.22922854 -7.1319411 2.0205162 0 0 Z " fill="#FDFDFD" transform="translate(212,127)"/>
<path d="M0 0 C14.87765267 0.01299978 29.66871116 0.34924751 44.05786133 4.5065918 C46.80715244 5.2803981 46.80715244 5.2803981 50.14379883 5.6081543 C53.83793787 6.21301882 56.48178854 7.28215647 59.82348633 8.94018555 C64.36864314 11.13150683 68.90050207 13.07252734 73.63598633 14.81518555 C79.35455505 16.97339538 83.74359863 19.50807288 88.38598633 23.50268555 C91.03016393 25.77599149 93.83643102 27.51952389 96.82348633 29.31518555 C102.89133062 33.11475336 107.94371144 37.75575177 113.08764648 42.68676758 C114.73644225 44.22561031 116.43059389 45.69301533 118.14770508 47.1550293 C124.9350918 53.01741595 130.51828334 59.1335207 135.57348633 66.56518555 C136.09168945 67.31421143 136.60989258 68.0632373 137.14379883 68.83496094 C140.19800264 73.54160229 141.30547277 76.57926212 140.69848633 82.19018555 C141.53379883 82.56143555 141.53379883 82.56143555 142.38598633 82.94018555 C148.36058676 86.16969929 150.68966424 89.65695205 152.94848633 95.94018555 C155.27885986 102.01310249 157.90852393 107.64215571 161.19848633 113.25268555 C169.47988113 127.66631822 174.1440231 141.74029018 177.94677734 157.83276367 C178.1882122 158.85129173 178.1882122 158.85129173 178.43452454 159.89039612 C178.87338736 161.75393229 179.30427884 163.6193406 179.73461914 165.48486328 C180.55857926 168.93881306 180.55857926 168.93881306 181.46537781 171.18067932 C184.0722055 177.95025068 184.11714829 184.27666742 184.06176758 191.4753418 C184.06226608 192.73100449 184.06276459 193.98666718 184.0632782 195.28038025 C184.06094676 197.9238933 184.05288029 200.56659044 184.03466797 203.20996094 C184.01195935 206.57765875 184.01144726 209.9449078 184.01818562 213.31266117 C184.02235229 216.55442121 184.0103389 219.79610334 183.99926758 223.0378418 C184.00017899 224.23699722 184.00109039 225.43615265 184.00202942 226.67164612 C183.94966231 232.88817208 183.45846458 238.23046184 181.69848633 244.19018555 C181.30854774 246.91179407 181.06819291 249.6396425 180.82348633 252.37768555 C178.30460608 276.91106515 172.51705106 300.24257765 159.76098633 321.50268555 C159.24858398 322.3824707 158.73618164 323.26225586 158.20825195 324.16870117 C155.51031819 328.68354077 153.18764673 332.2387486 148.69848633 335.19018555 C150.05558882 330.51415882 152.00263558 326.83756669 154.63598633 322.75268555 C157.49499566 318.31186918 159.71509064 314.0590461 161.69848633 309.19018555 C162.44098633 307.61237305 162.44098633 307.61237305 163.19848633 306.00268555 C165.37002063 300.93577218 166.43089835 295.53638562 167.69848633 290.19018555 C168.2179953 288.16901135 168.73880868 286.14817193 169.26098633 284.12768555 C171.59136959 274.7211906 172.99953213 265.37304251 173.91357422 255.73461914 C173.98697021 255.00452637 174.06036621 254.27443359 174.13598633 253.5222168 C174.19657227 252.88002197 174.2571582 252.23782715 174.31958008 251.57617188 C174.69848633 249.19018555 174.69848633 249.19018555 175.71044922 245.72387695 C177.17307618 239.98655204 177.04268192 234.20792031 177.06958008 228.3190918 C177.07860855 227.08335922 177.08763702 225.84762665 177.09693909 224.57444763 C177.1114091 221.9630677 177.12032021 219.35165177 177.12402344 216.74023438 C177.13585496 212.79647528 177.18502314 208.85431519 177.2355957 204.91088867 C177.32454593 191.02151476 176.52541501 179.21453019 171.69848633 166.19018555 C171.19802147 164.35086635 170.72474689 162.50369055 170.29223633 160.6472168 C170.01694092 159.48343506 170.01694092 159.48343506 169.73608398 158.29614258 C169.55867676 157.53930176 169.38126953 156.78246094 169.19848633 156.00268555 C166.08677602 143.26894903 161.74030244 131.71333199 155.66186523 120.05688477 C154.27869985 117.37678275 152.94591258 114.67245001 151.60961914 111.96875 C150.27860624 109.28257529 148.93021229 106.60541977 147.5769043 103.93041992 C146.82044224 102.43179247 146.07303865 100.92859878 145.32739258 99.42456055 C143.2900651 95.49686035 141.27450132 92.63602858 138.01098633 89.62768555 C134.93840783 86.7520672 134.14722089 84.70422253 133.40942383 80.4987793 C131.3659174 73.86299742 126.17181547 67.79475085 121.69848633 62.56518555 C119.69848633 60.19018555 119.69848633 60.19018555 119.69848633 58.19018555 C119.15708008 57.96331055 118.61567383 57.73643555 118.05786133 57.50268555 C114.95615761 55.77723447 112.57148532 53.57725341 109.94848633 51.19018555 C109.44188477 50.73901367 108.9352832 50.2878418 108.41333008 49.82299805 C107.13302815 48.65657743 105.91056904 47.42734583 104.69848633 46.19018555 C104.69848633 45.53018555 104.69848633 44.87018555 104.69848633 44.19018555 C104.14547852 43.9375293 103.5924707 43.68487305 103.02270508 43.42456055 C100.31325751 41.98559343 97.97170684 40.27241034 95.51098633 38.44018555 C91.31688222 35.34507129 87.06993606 32.40755547 82.67114258 29.61206055 C80.69848633 28.19018555 80.69848633 28.19018555 78.76489258 26.1784668 C73.36329683 20.98109017 65.21499613 18.89923585 58.13208008 16.93237305 C55.71964827 16.19663943 53.50456692 15.26972622 51.19848633 14.25268555 C26.88685914 4.38435787 -2.17992311 2.89188918 -26.23901367 12.94018555 C-27.27219727 13.3578418 -28.30538086 13.77549805 -29.36987305 14.20581055 C-35.13438281 16.60069237 -40.17537394 19.27673378 -45.28027344 22.8605957 C-48.17915151 24.76750354 -51.02892464 25.84878918 -54.30151367 27.00268555 C-58.0838782 28.11032189 -58.0838782 28.11032189 -61.30151367 30.19018555 C-60.02018555 30.44413086 -58.73885742 30.69807617 -57.41870117 30.9597168 C-52.91124282 31.8548304 -48.40587981 32.76009843 -43.90112305 33.66870117 C-41.62439563 34.12541509 -39.3461421 34.57314078 -37.06713867 35.01831055 C-35.86573242 35.2606543 -34.66432617 35.50299805 -33.42651367 35.75268555 C-32.3772168 35.96022461 -31.32791992 36.16776367 -30.24682617 36.3815918 C-27.30151367 37.19018555 -27.30151367 37.19018555 -24.24291992 38.74487305 C-21.29170181 40.19500678 -19.35952996 40.59669949 -16.11401367 40.75268555 C-12.4831064 40.93674075 -11.45366908 41.08874861 -8.30151367 43.19018555 C-8.55151367 45.06518555 -8.55151367 45.06518555 -9.30151367 47.19018555 C-11.11401367 48.56518555 -11.11401367 48.56518555 -13.30151367 49.19018555 C-13.90608398 48.88209961 -14.5106543 48.57401367 -15.13354492 48.2565918 C-18.25905615 46.71917817 -21.23148687 46.79860378 -24.66870117 46.6315918 C-27.30151367 46.19018555 -27.30151367 46.19018555 -29.86791992 44.8190918 C-34.84092851 42.45988294 -39.98324715 41.61351288 -45.36401367 40.56518555 C-46.97759766 40.2403418 -46.97759766 40.2403418 -48.6237793 39.90893555 C-51.51488392 39.32820529 -54.40782849 38.75788544 -57.30151367 38.19018555 C-58.20699951 37.97313965 -59.11248535 37.75609375 -60.04541016 37.5324707 C-60.78992432 37.4195166 -61.53443848 37.3065625 -62.30151367 37.19018555 C-63.94745507 38.58607309 -63.94745507 38.58607309 -65.30151367 40.19018555 C-66.29151367 40.19018555 -67.28151367 40.19018555 -68.30151367 40.19018555 C-68.30151367 38.54018555 -68.30151367 36.89018555 -68.30151367 35.19018555 C-89.14176129 34.49973413 -109.98460618 34.0528414 -130.83651733 33.95800781 C-133.03888383 33.94625596 -135.24122953 33.92928507 -137.44351196 33.90673828 C-156.94750188 33.71793304 -175.64341612 34.43923289 -192.61401367 45.00268555 C-197.46568713 47.95776684 -202.24418599 50.71595717 -207.42651367 53.06518555 C-213.84594555 56.1696649 -219.00225292 60.55530713 -224.46557617 65.06518555 C-228.22935494 68.16408788 -232.098504 71.08771203 -236.05151367 73.94018555 C-236.63594238 74.37041016 -237.22037109 74.80063477 -237.82250977 75.24389648 C-241.94219683 78.19018555 -241.94219683 78.19018555 -245.30151367 78.19018555 C-240.76643789 73.09789909 -235.93530305 69.5543153 -230.13354492 66.0065918 C-224.82840568 62.60398525 -220.00456725 58.52464091 -215.23901367 54.40893555 C-209.38459187 49.53025072 -203.00742305 46.40427806 -196.19213867 43.11206055 C-190.60392486 40.39654636 -185.30212504 37.20372688 -180.14477539 33.74291992 C-165.91330474 25.97096789 -147.5885485 27.68678687 -131.98901367 27.87768555 C-129.46013229 27.89198975 -126.93124123 27.90467103 -124.40234375 27.91577148 C-113.09258475 27.98238504 -101.79174154 28.16006386 -90.48901367 28.5690918 C-89.61509476 28.59948044 -88.74117584 28.62986908 -87.84077454 28.66117859 C-83.86323279 28.80300121 -79.88976798 28.96952945 -75.91552734 29.18505859 C-74.53769627 29.24446045 -73.15984896 29.30348715 -71.78198242 29.36206055 C-70.61562256 29.42490234 -69.4492627 29.48774414 -68.24755859 29.55249023 C-64.59825288 29.10369852 -63.62961514 27.93714223 -61.30151367 25.19018555 C-59.64453989 24.4997798 -57.97593757 23.83712205 -56.30151367 23.19018555 C-55.06123132 22.41604958 -53.83314706 21.62221751 -52.61401367 20.81518555 C-48.89551072 18.42722037 -45.13093065 16.79826576 -40.98901367 15.2800293 C-38.80786433 14.39552252 -36.79121547 13.43715555 -34.70385742 12.36206055 C-29.55724988 9.75006957 -24.21890004 7.64534608 -18.86401367 5.50268555 C-16.88523217 4.70939598 -14.90731606 3.91394313 -12.93041992 3.1159668 C-12.06489502 2.76961182 -11.19937012 2.42325684 -10.30761719 2.06640625 C-6.44268148 0.37828963 -4.51884739 0.03534294 0 0 Z " fill="#0C0C0C" transform="translate(315.301513671875,13.809814453125)"/>
<path d="M0 0 C0.66 0.33 1.32 0.66 2 1 C1.41992188 1.70125 0.83984375 2.4025 0.2421875 3.125 C-0.53898437 4.07375 -1.32015625 5.0225 -2.125 6 C-3.27355469 7.3921875 -3.27355469 7.3921875 -4.4453125 8.8125 C-16.04980387 23.18684429 -23.57412324 37.98359042 -27.53100586 56.06689453 C-28 58 -28 58 -29.06640625 60.94921875 C-30.3370067 65.10126456 -30.5981166 69.18533301 -30.9375 73.5 C-31.43977583 79.3343689 -32.08509193 84.83198155 -33.625 90.5 C-37.35121625 106.90303443 -35.6678156 124.71611399 -32.875 141.125 C-32.59366211 142.83840576 -32.59366211 142.83840576 -32.30664062 144.58642578 C-31.05389983 151.17307149 -29.10343613 156.0140047 -25.43994141 161.61035156 C-23.1281473 165.44687933 -21.96559649 169.52683171 -20.75 173.8125 C-18.66353109 183.08479887 -18.66353109 183.08479887 -13 190 C-11.95605469 192.28857422 -11.95605469 192.28857422 -10.921875 195.1796875 C-8.00791119 202.47766412 -3.96351166 208.7019443 0.42773438 215.17333984 C1.74717683 217.12083301 3.04636888 219.0807288 4.34375 221.04296875 C11.85365957 232.29513124 20.63895993 241.80734427 30.25 251.3125 C31.02601562 252.08400391 31.80203125 252.85550781 32.6015625 253.65039062 C34.0866339 255.12659215 35.57304574 256.60144687 37.06103516 258.07470703 C38.64620779 259.64870243 40.21939246 261.23476295 41.7890625 262.82421875 C75.34773297 295.84927079 132.00596896 319.26053753 178.80078125 322.12109375 C179.45470352 322.16221975 180.10862579 322.20334576 180.78236389 322.245718 C197.17256641 323.25637626 213.56905828 323.34038569 229.98535156 323.31567383 C234.2059665 323.30979955 238.42615384 323.32708193 242.646698 323.3500185 C245.97052455 323.36485916 249.29424921 323.36561531 252.61810303 323.36250877 C254.1743049 323.36301347 255.73051383 323.36808582 257.28668213 323.37832069 C270.6342702 323.45563753 283.161952 321.9642188 295.69140625 317.00390625 C296.77022316 316.59168068 296.77022316 316.59168068 297.87083435 316.17112732 C299.35889568 315.59955845 300.8447797 315.02228692 302.32836914 314.43920898 C304.58642803 313.55311025 306.85191837 312.68851954 309.11914062 311.82617188 C310.58120504 311.26164759 312.0428116 310.69593575 313.50390625 310.12890625 C314.16959122 309.87460342 314.83527618 309.6203006 315.52113342 309.35829163 C320.32125786 307.45685645 324.87546127 305.21375821 328.48828125 301.44921875 C330.7555158 299.27572 333.36859118 298.17816238 336.1875 296.8125 C337.4479944 296.19547128 338.70840788 295.57827721 339.96875 294.9609375 C340.62746094 294.64092773 341.28617187 294.32091797 341.96484375 293.99121094 C347.3918624 291.34801327 352.78779115 288.64255471 358.17382812 285.91699219 C359.82232482 285.08921765 361.48092579 284.28164048 363.140625 283.4765625 C369.96983595 280.02380501 374.88979079 275.67801023 380 270 C380.66 270.33 381.32 270.66 382 271 C373.56022445 280.3892503 365.82268905 286.93544486 354.25683594 291.99316406 C349.94617581 293.91626687 345.72883795 296.02972134 341.5 298.125 C340.6754834 298.52106445 339.8509668 298.91712891 339.00146484 299.32519531 C332.78325741 302.37944362 327.49066899 306.13126622 322.15014648 310.52026367 C319.52872813 312.32433051 316.90392887 313.39594926 313.94140625 314.55859375 C312.74966797 315.02716797 311.55792969 315.49574219 310.33007812 315.97851562 C309.39917358 316.33876831 309.39917358 316.33876831 308.44946289 316.70629883 C306.59658801 317.42429084 304.748431 318.15442007 302.90039062 318.88476562 C285.35187965 325.73686231 269.73919638 329.32046669 250.953125 329.265625 C249.29433129 329.26697808 247.63553798 329.26892391 245.97674561 329.27142334 C242.50040917 329.27436081 239.02417591 329.27013252 235.54785156 329.26074219 C231.19267567 329.24952474 226.8377488 329.2560055 222.48258209 329.26760674 C205.90045335 329.30524962 189.35130199 329.17636809 172.796875 328.1484375 C171.58235657 328.07618958 170.36783813 328.00394165 169.11651611 327.92950439 C148.911804 326.51057943 129.84338556 320.08148371 111 313 C110.27603027 312.731875 109.55206055 312.46375 108.80615234 312.1875 C98.83931641 308.47441244 89.40300744 303.93351461 80 299 C79.28972656 298.63422852 78.57945312 298.26845703 77.84765625 297.89160156 C65.32069984 291.41040888 54.15436999 283.60374559 43 275 C42.21383301 274.40799805 41.42766602 273.81599609 40.61767578 273.20605469 C36.33267592 269.95048156 32.54243148 266.70597681 29 262.625 C25.87424522 259.05601591 22.69443 255.66474342 19.1875 252.46484375 C9.96256228 243.94547758 2.74435555 234.86260091 -4.0625 224.375 C-4.4536499 223.77446808 -4.8447998 223.17393616 -5.24780273 222.5552063 C-10.01196712 215.19209822 -14.37767403 207.68865451 -18.34693909 199.86581421 C-19.94639257 196.75626012 -21.52789654 194.43705389 -24 192 C-24.79614258 190.01391602 -24.79614258 190.01391602 -25.39453125 187.75390625 C-25.62495117 186.92197754 -25.85537109 186.09004883 -26.09277344 185.23291016 C-26.3302832 184.3516748 -26.56779297 183.47043945 -26.8125 182.5625 C-28.83405659 175.41274883 -31.08824016 169.01849218 -34.703125 162.5078125 C-41.65106234 149.07234331 -42.38425684 132.33105109 -42.4375 117.5625 C-42.4473291 116.33208984 -42.4571582 115.10167969 -42.46728516 113.83398438 C-42.38766986 105.22630153 -41.02848042 97.34661019 -39 89 C-38.22034885 85.43462535 -37.87887016 82.08530237 -37.76049805 78.43164062 C-37.52110927 71.68712209 -36.72726731 66.14141462 -34.07421875 59.8671875 C-32.8102007 56.49340841 -32.20027429 53.1583637 -31.5 49.625 C-28.40666054 35.76400564 -19.97953344 22.12719227 -10.04296875 12.08203125 C-7.18436733 9.16877205 -4.77729644 5.96130018 -2.3125 2.71484375 C-1 1 -1 1 0 0 Z " fill="#0C0C0C" transform="translate(68,93)"/>
<path d="M0 0 C0.88398972 -0.00570007 1.76797943 -0.01140015 2.67875671 -0.01727295 C4.54550997 -0.02669741 6.41227968 -0.03324675 8.27905273 -0.03710938 C11.11667283 -0.0468065 13.95356552 -0.07785051 16.79101562 -0.109375 C18.61067281 -0.11590687 20.43033515 -0.12115662 22.25 -0.125 C23.50977409 -0.1435202 23.50977409 -0.1435202 24.79499817 -0.16241455 C30.48805234 -0.14116689 34.57625467 1.00342835 39.82421875 3.203125 C42.08379938 3.58865797 44.35668913 3.90439376 46.63671875 4.140625 C61.63517089 6.13086546 76.9258881 13.83379176 88.82421875 23.203125 C89.72011719 23.84507812 90.61601562 24.48703125 91.5390625 25.1484375 C95.0368913 29.82416762 94.43817735 34.21281006 94.26171875 39.890625 C94.25301758 41.44813477 94.25301758 41.44813477 94.24414062 43.03710938 C93.98285389 59.70720312 93.98285389 59.70720312 89.82421875 64.515625 C89.16421875 65.0725 88.50421875 65.629375 87.82421875 66.203125 C87.15659296 67.8694077 86.49004124 69.53612091 85.82421875 71.203125 C80.03658151 80.21342388 72.46656986 88.74483536 61.82421875 91.203125 C58.85615775 91.45895989 55.91114766 91.46082585 52.93359375 91.43359375 C52.1071637 91.43313553 51.28073364 91.43267731 50.42926025 91.4322052 C48.69468741 91.42920126 46.96011681 91.4213712 45.22558594 91.40893555 C42.56826259 91.39058387 39.91128662 91.38842682 37.25390625 91.38867188 C35.56379907 91.38375935 33.87369424 91.3779322 32.18359375 91.37109375 C31.38983337 91.36998093 30.596073 91.3688681 29.77825928 91.36772156 C26.53863777 91.33971451 23.91907225 91.23474283 20.82421875 90.203125 C17.37239771 89.96895624 13.92160662 89.82184874 10.46484375 89.6796875 C3.66423912 88.7894796 -1.59919357 85.56460365 -7.05078125 81.640625 C-7.6550293 81.20733887 -8.25927734 80.77405273 -8.88183594 80.32763672 C-15.34335013 75.55121107 -22.03101987 69.76801863 -25.17578125 62.203125 C-26.54425439 52.54644647 -28.36523329 38.31207743 -22.89453125 29.7578125 C-18.54563235 24.49916812 -13.28900694 20.59486078 -6.38671875 19.9375 C-5.45085937 19.94265625 -4.515 19.9478125 -3.55078125 19.953125 C-2.13925781 19.94539063 -2.13925781 19.94539063 -0.69921875 19.9375 C1.82421875 20.203125 1.82421875 20.203125 4.82421875 22.203125 C4.57421875 24.078125 4.57421875 24.078125 3.82421875 26.203125 C2.01171875 27.578125 2.01171875 27.578125 -0.17578125 28.203125 C-0.76617187 27.88214844 -1.3565625 27.56117188 -1.96484375 27.23046875 C-4.78389421 25.92055661 -6.66053935 26.10169413 -9.73828125 26.390625 C-10.68832031 26.46667969 -11.63835937 26.54273438 -12.6171875 26.62109375 C-15.57001266 27.29280512 -16.37178576 27.81317783 -18.17578125 30.203125 C-18.6382761 32.79460708 -18.6382761 32.79460708 -18.57421875 35.71875 C-18.57808594 36.80542969 -18.58195312 37.89210937 -18.5859375 39.01171875 C-18.57433594 40.14738281 -18.56273437 41.28304687 -18.55078125 42.453125 C-18.56238281 43.57332031 -18.57398438 44.69351563 -18.5859375 45.84765625 C-18.55135378 55.61179372 -16.5845412 61.47956013 -9.89453125 68.71875 C-6.45619005 71.86068247 -2.80890363 74.54658158 1.01171875 77.203125 C1.70096436 77.68426758 2.39020996 78.16541016 3.1003418 78.66113281 C10.08740845 83.35357269 16.23270365 83.42497682 24.546875 83.921875 C27.82421875 84.203125 27.82421875 84.203125 29.55957031 84.70581055 C32.80249789 85.41795409 36.03062705 85.40626656 39.3359375 85.44140625 C40.06359818 85.449478 40.79125885 85.45754974 41.54096985 85.46586609 C43.07994227 85.47966987 44.61894484 85.49040853 46.15795898 85.49829102 C47.7182728 85.50978176 49.27854821 85.5301876 50.83862305 85.55981445 C63.47241006 86.05934853 63.47241006 86.05934853 74.82421875 81.203125 C76.94676165 78.94860769 76.94676165 78.94860769 78.13671875 76.328125 C78.60335937 75.44382812 79.07 74.55953125 79.55078125 73.6484375 C79.97101563 72.84148437 80.39125 72.03453125 80.82421875 71.203125 C81.54609375 70.213125 82.26796875 69.223125 83.01171875 68.203125 C87.52367397 60.73506118 88.30912553 52.83224796 88.19921875 44.265625 C88.21082031 43.33427734 88.22242188 42.40292969 88.234375 41.44335938 C88.23050781 40.55068359 88.22664063 39.65800781 88.22265625 38.73828125 C88.21758057 37.53764038 88.21758057 37.53764038 88.21240234 36.31274414 C87.73509083 33.71875121 86.73586371 32.94170313 84.82421875 31.203125 C84.82421875 30.543125 84.82421875 29.883125 84.82421875 29.203125 C84.16421875 29.203125 83.50421875 29.203125 82.82421875 29.203125 C82.82421875 28.543125 82.82421875 27.883125 82.82421875 27.203125 C81.89609375 26.914375 80.96796875 26.625625 80.01171875 26.328125 C76.82421875 25.203125 76.82421875 25.203125 73.82421875 23.203125 C73.82421875 22.543125 73.82421875 21.883125 73.82421875 21.203125 C73.12425781 21.10773438 72.42429687 21.01234375 71.703125 20.9140625 C68.2890868 20.07097573 65.79196725 18.60797356 62.76171875 16.828125 C53.45692669 11.70996604 44.1756851 10.08900352 33.734375 8.73046875 C30.82421875 8.203125 30.82421875 8.203125 28.70605469 7.18237305 C24.70044393 5.82126624 21.00495215 5.95540219 16.8046875 6.0078125 C15.51683098 6.01205734 15.51683098 6.01205734 14.20295715 6.01638794 C11.4724 6.0275443 8.74217605 6.05264041 6.01171875 6.078125 C4.15560371 6.08816068 2.29948351 6.0972855 0.44335938 6.10546875 C-4.09648171 6.12746874 -8.63607506 6.16196719 -13.17578125 6.203125 C-13.28535156 6.96238281 -13.39492188 7.72164062 -13.5078125 8.50390625 C-13.66636719 9.49777344 -13.82492187 10.49164063 -13.98828125 11.515625 C-14.13910156 12.50175781 -14.28992188 13.48789063 -14.4453125 14.50390625 C-15.21400381 17.34436451 -15.83199979 18.47333163 -18.17578125 20.203125 C-18.83578125 20.203125 -19.49578125 20.203125 -20.17578125 20.203125 C-20.59508434 8.2063978 -20.59508434 8.2063978 -16.36328125 2.953125 C-11.7653555 -0.7252156 -5.63169762 0.02829342 0 0 Z " fill="#0D0D0D" transform="translate(311.17578125,128.796875)"/>
<path d="M0 0 C0 0.99 0 1.98 0 3 C-2.5 5.1875 -2.5 5.1875 -5 7 C-4.31292969 7.04898438 -3.62585938 7.09796875 -2.91796875 7.1484375 C-2.01691406 7.22320312 -1.11585938 7.29796875 -0.1875 7.375 C0.70582031 7.44460937 1.59914062 7.51421875 2.51953125 7.5859375 C5 8 5 8 8 10 C9.88556852 10.35197279 11.78428676 10.63618451 13.6875 10.875 C18.29037691 11.58355742 21.66808894 12.58519556 25.67578125 14.87890625 C28.21544558 16.10392081 30.79610187 16.8721902 33.49829102 17.65966797 C40.97375006 19.8642856 46.23814379 22.61798561 51 29 C54.07588126 35.15176253 52.74468897 45.31398812 52 52 C50.65053226 55.836344 48.83009922 58.13859437 46 61 C45.45859375 61.72316406 44.9171875 62.44632813 44.359375 63.19140625 C40.24189714 68.56914018 36.58579549 70.5134936 30 72 C25.13391039 72.44652493 20.27735704 72.47177533 15.39453125 72.46875 C13.98361416 72.47587109 12.57269989 72.48357284 11.16178894 72.49182129 C8.21414129 72.50520503 5.26676115 72.50686395 2.3190918 72.50097656 C-1.41833507 72.49510297 -5.15445276 72.52560119 -8.89162731 72.56609344 C-11.80459746 72.59222729 -14.71726368 72.59482468 -17.63033485 72.59120178 C-19.00596705 72.59287092 -20.3816168 72.60229507 -21.75713158 72.62034607 C-31.56388586 72.73484834 -40.23804476 71.54938828 -49 67 C-50.78410339 64.98278809 -50.78410339 64.98278809 -52 63 C-52.556875 62.195625 -53.11375 61.39125 -53.6875 60.5625 C-55.67947561 55.15570906 -55.42462364 49.70792158 -55 44 C-54.505 43.505 -54.505 43.505 -54 43 C-54.01160156 42.01257813 -54.02320313 41.02515625 -54.03515625 40.0078125 C-54.08669198 32.68973854 -53.77855696 27.8318897 -48.8125 22.0625 C-42.97608339 16.40397127 -36.20742048 12.6244809 -29 9 C-29.99 8.34 -30.98 7.68 -32 7 C-30.43359375 5.00390625 -30.43359375 5.00390625 -28 3 C-24.78515625 2.71484375 -24.78515625 2.71484375 -21.0625 2.9375 C-13.67356298 3.22922854 -7.1319411 2.0205162 0 0 Z M-32.0625 13.5625 C-32.76060791 13.93745605 -33.45871582 14.31241211 -34.17797852 14.69873047 C-36.13519763 15.77257037 -38.068084 16.88149424 -40 18 C-40.84304687 18.45503906 -41.68609375 18.91007812 -42.5546875 19.37890625 C-44.70884559 20.80458349 -45.7754462 21.71356376 -47 24 C-47.63741599 27.68941441 -47.87441517 31.2103984 -47.9296875 34.953125 C-48 38 -48 38 -49 40 C-49.7301337 47.55407557 -48.69391907 53.58586755 -44.703125 60.125 C-42.600326 62.44000807 -41.07296391 62.87351578 -38.0625 63.625 C-33.23807738 64.86203144 -33.23807738 64.86203144 -31.22735596 66.02726746 C-28.3397624 67.28833945 -26.0386433 67.26130065 -22.88964844 67.2746582 C-21.65446472 67.28419022 -20.41928101 67.29372223 -19.14666748 67.30354309 C-17.80090303 67.30328156 -16.45513857 67.30234404 -15.109375 67.30078125 C-13.72178011 67.30467138 -12.33418641 67.30900671 -10.94659424 67.31376648 C-8.03808739 67.32122341 -5.12970192 67.32094243 -2.22119141 67.31567383 C1.48861992 67.30989641 5.19792918 67.32677025 8.90765762 67.3500185 C11.77489075 67.36482551 14.64200512 67.36561786 17.50926971 67.36250877 C18.87588236 67.36301904 20.24250218 67.36820104 21.60907745 67.37832069 C29.05579657 67.42667611 35.25957645 67.34309042 42 64 C46.97066181 59.0086271 47.51636361 52.02260738 47.625 45.3125 C47.57865506 40.57862186 47.37534943 36.44842625 44.625 32.4375 C42.35276591 29.77318297 42.35276591 29.77318297 40 30 C40 29.34 40 28.68 40 28 C37.16306861 25.40661028 34.64542226 24.46597206 30.9375 23.625 C26.91399163 22.61380081 23.40498828 21.33674717 19.6875 19.5 C14.20985159 16.86819208 8.7265657 15.68868688 2.7734375 14.578125 C0 14 0 14 -1 13 C-3.3472672 12.62112207 -5.70353532 12.2974852 -8.0625 12 C-9.35285156 11.835 -10.64320313 11.67 -11.97265625 11.5 C-12.63547607 11.42338135 -13.2982959 11.3467627 -13.98120117 11.26782227 C-15.32706876 11.08927386 -16.66743877 10.86285728 -17.99731445 10.58959961 C-23.64731802 9.52819275 -27.09789711 10.8325374 -32.0625 13.5625 Z " fill="#0A0A0A" transform="translate(212,127)"/>
<path d="M0 0 C0 0.33 0 0.66 0 1 C-1.07378906 1.23203125 -2.14757812 1.4640625 -3.25390625 1.703125 C-9.03606133 3.15343452 -14.44726481 5.45699935 -19.9375 7.75 C-20.97068359 8.16765625 -22.00386719 8.5853125 -23.06835938 9.015625 C-28.83286914 11.41050683 -33.87386027 14.08654823 -38.97875977 17.67041016 C-41.87763784 19.57731799 -44.72741097 20.65860363 -48 21.8125 C-51.78236452 22.92013635 -51.78236452 22.92013635 -55 25 C-53.71867188 25.25394531 -52.43734375 25.50789063 -51.1171875 25.76953125 C-46.60972914 26.66464485 -42.10436613 27.56991288 -37.59960938 28.47851562 C-35.32288196 28.93522954 -33.04462843 29.38295523 -30.765625 29.828125 C-29.56421875 30.07046875 -28.3628125 30.3128125 -27.125 30.5625 C-26.07570313 30.77003906 -25.02640625 30.97757813 -23.9453125 31.19140625 C-21 32 -21 32 -17.94140625 33.5546875 C-14.99018813 35.00482124 -13.05801629 35.40651395 -9.8125 35.5625 C-6.18159273 35.74655521 -5.15215541 35.89856306 -2 38 C-2.25 39.875 -2.25 39.875 -3 42 C-4.8125 43.375 -4.8125 43.375 -7 44 C-7.60457031 43.69191406 -8.20914063 43.38382813 -8.83203125 43.06640625 C-11.95754248 41.52899262 -14.9299732 41.60841823 -18.3671875 41.44140625 C-21 41 -21 41 -23.56640625 39.62890625 C-28.53941484 37.2696974 -33.68173348 36.42332733 -39.0625 35.375 C-40.67608398 35.05015625 -40.67608398 35.05015625 -42.32226562 34.71875 C-45.21337024 34.13801975 -48.10631482 33.56769989 -51 33 C-51.90548584 32.7829541 -52.81097168 32.5659082 -53.74389648 32.34228516 C-54.48841064 32.22933105 -55.2329248 32.11637695 -56 32 C-57.64594139 33.39588754 -57.64594139 33.39588754 -59 35 C-59.99 35 -60.98 35 -62 35 C-62 33.35 -62 31.7 -62 30 C-82.84024762 29.30954859 -103.68309251 28.86265585 -124.53500366 28.76782227 C-126.73737016 28.75607041 -128.93971585 28.73909952 -131.14199829 28.71655273 C-150.64598821 28.5277475 -169.34190244 29.24904735 -186.3125 39.8125 C-191.16417345 42.7675813 -195.94267232 45.52577162 -201.125 47.875 C-207.54443188 50.97947935 -212.70073925 55.36512158 -218.1640625 59.875 C-221.92784127 62.97390234 -225.79699033 65.89752648 -229.75 68.75 C-230.33442871 69.18022461 -230.91885742 69.61044922 -231.52099609 70.05371094 C-235.64068316 73 -235.64068316 73 -239 73 C-234.46492422 67.90771354 -229.63378937 64.36412975 -223.83203125 60.81640625 C-218.52689201 57.4137997 -213.70305358 53.33445536 -208.9375 49.21875 C-203.0830782 44.34006517 -196.70590938 41.21409251 -189.890625 37.921875 C-184.30241118 35.20636082 -179.00061137 32.01354134 -173.84326172 28.55273438 C-159.61179107 20.78078235 -141.28703483 22.49660132 -125.6875 22.6875 C-123.15861861 22.70180421 -120.62972756 22.71448549 -118.10083008 22.72558594 C-106.79107108 22.7921995 -95.49022787 22.96987832 -84.1875 23.37890625 C-83.31358109 23.40929489 -82.43966217 23.43968353 -81.53926086 23.47099304 C-77.56171912 23.61281567 -73.58825431 23.77934391 -69.61401367 23.99487305 C-68.2361826 24.0542749 -66.85833529 24.1133016 -65.48046875 24.171875 C-64.31410889 24.2347168 -63.14774902 24.29755859 -61.94604492 24.36230469 C-58.29673921 23.91351297 -57.32810146 22.74695669 -55 20 C-53.34302621 19.30959426 -51.6744239 18.6469365 -50 18 C-48.75971765 17.22586404 -47.53163339 16.43203196 -46.3125 15.625 C-42.59399705 13.23703483 -38.82941698 11.60808021 -34.6875 10.08984375 C-32.46507843 9.18860012 -30.39054505 8.20834843 -28.2578125 7.12109375 C-23.87917224 4.90454838 -19.42307943 2.96570668 -14.875 1.125 C-14.10285156 0.79242187 -13.33070313 0.45984375 -12.53515625 0.1171875 C-7.66859991 -1.8393837 -4.95988817 -2.42448208 0 0 Z " fill="#131313" transform="translate(309,19)"/>
<path d="M0 0 C0.02692484 2.29160319 0.04636124 4.58329546 0.0625 6.875 C0.07410156 8.15117187 0.08570313 9.42734375 0.09765625 10.7421875 C0 14 0 14 -1 16 C-1.77433755 24.01141538 -0.50726291 30.23910563 4 37 C6.2757698 37.94348504 6.2757698 37.94348504 8.875 38.5625 C13.73657963 39.84682775 13.73657963 39.84682775 15.77384949 41.03144836 C18.67002563 42.29151417 20.96995685 42.24704934 24.1262207 42.24291992 C25.98383781 42.24753487 25.98383781 42.24753487 27.87898254 42.25224304 C29.22791732 42.24534233 30.57685027 42.23807513 31.92578125 42.23046875 C33.31577003 42.22927556 34.70575963 42.22882408 36.0957489 42.2290802 C39.00846409 42.22751725 41.92105605 42.2192452 44.83374023 42.20581055 C48.5524571 42.18886855 52.27103807 42.18499508 55.98978901 42.18575573 C58.86125466 42.1854826 61.73269108 42.17997782 64.60414696 42.17275429 C65.97436489 42.16958904 67.34458612 42.16760527 68.71480751 42.16686058 C70.6384158 42.1646714 72.56201131 42.15509819 74.4855957 42.14526367 C75.57717484 42.14145187 76.66875397 42.13764008 77.79341125 42.13371277 C81.24863581 41.98963204 84.58639042 41.5418345 88 41 C87.07087736 43.28951355 86.47788593 44.70167527 84.34941101 46.03039551 C77.10873827 48.45490375 69.96646665 48.47344146 62.39453125 48.46875 C60.98361416 48.47587109 59.57269989 48.48357284 58.16178894 48.49182129 C55.21414129 48.50520503 52.26676115 48.50686395 49.3190918 48.50097656 C45.58166493 48.49510297 41.84554724 48.52560119 38.10837269 48.56609344 C35.19540254 48.59222729 32.28273632 48.59482468 29.36966515 48.59120178 C27.99403295 48.59287092 26.6183832 48.60229507 25.24286842 48.62034607 C15.43611414 48.73484834 6.76195524 47.54938828 -2 43 C-3.78410339 40.98278809 -3.78410339 40.98278809 -5 39 C-5.556875 38.195625 -6.11375 37.39125 -6.6875 36.5625 C-8.67947561 31.15570906 -8.42462364 25.70792158 -8 20 C-7.67 19.67 -7.34 19.34 -7 19 C-6.86437715 15.87690725 -6.75204253 12.76085197 -6.74609375 9.63476562 C-6.60305613 5.78404235 -6.28581994 4.28537054 -3.515625 1.51953125 C-1 0 -1 0 0 0 Z " fill="#131313" transform="translate(165,151)"/>
<path d="M0 0 C0.78503906 0.11472656 1.57007813 0.22945313 2.37890625 0.34765625 C3.35085937 0.48300781 4.3228125 0.61835938 5.32421875 0.7578125 C10.59213817 1.70785844 15.85672458 2.68181568 21.09741211 3.77319336 C24.03817861 4.36896328 26.98491891 4.89735947 29.94140625 5.41015625 C30.6583667 5.53681671 31.37532715 5.66347717 32.11401367 5.79397583 C48.53798856 8.61164661 64.68877725 8.76798179 81.31640625 8.59765625 C83.91405463 8.58256308 86.51171162 8.56888297 89.109375 8.55664062 C95.38691104 8.52404658 101.66411648 8.47422406 107.94140625 8.41015625 C106.06640625 12.28515625 106.06640625 12.28515625 104.94140625 13.41015625 C73.20456524 18.3503816 39.14097396 14.97369706 7.94140625 8.41015625 C6.92222107 8.19579926 6.92222107 8.19579926 5.88244629 7.97711182 C1.89872136 7.13677828 -2.08132479 6.28050109 -6.05859375 5.41015625 C-2.31591797 0.46142578 -2.31591797 0.46142578 0 0 Z " fill="#101010" transform="translate(221.05859375,334.58984375)"/>
<path d="M0 0 C0.33 1.32 0.66 2.64 1 4 C1.99 4 2.98 4 4 4 C4.48598869 12.94579182 2.96665476 18.44204711 -2 26 C-4.57449581 28.57449581 -6.41337147 28.2763761 -9.9296875 28.36328125 C-12.71290533 27.87490529 -14.02813545 27.01995881 -16 25 C-16.64393094 21.3431812 -16.24266762 17.6956256 -16 14 C-15.979375 13.23300781 -15.95875 12.46601563 -15.9375 11.67578125 C-15.70699338 7.89403206 -15.0482416 6.06127986 -12.6875 3.0625 C-8.39258954 -0.23359407 -5.33923915 -0.12134634 0 0 Z " fill="#0A0A0A" transform="translate(349,170)"/>
<path d="M0 0 C0 1.65 0 3.3 0 5 C2.92879371 4.37240135 5.36095629 3.41377341 8 2 C10.42136374 4.42136374 9.23368095 10.62342968 9.25 13.875 C9.270625 14.89464844 9.29125 15.91429687 9.3125 16.96484375 C9.31765625 17.94324219 9.3228125 18.92164063 9.328125 19.9296875 C9.34214355 21.27909424 9.34214355 21.27909424 9.35644531 22.65576172 C9 25 9 25 7.70214844 26.81298828 C5.00226633 28.69578042 2.20560111 28.05828366 -1 28 C-1.66 28.66 -2.32 29.32 -3 30 C-3.99 30 -4.98 30 -6 30 C-6 27.36 -6 24.72 -6 22 C-7.32 22 -8.64 22 -10 22 C-10.80157742 14.88971139 -9.85503629 10.69166665 -5.60546875 4.91015625 C-1.47852761 0 -1.47852761 0 0 0 Z " fill="#080808" transform="translate(209,153)"/>
<path d="M0 0 C-1.41083142 3.34527039 -3.02703962 5.03611382 -5.875 7.25 C-10.80453596 11.48043814 -13.71011917 15.34750157 -14.234375 21.953125 C-14.24820285 24.64955505 -14.17801337 27.31002025 -14 30 C-9.27382588 30.76262664 -4.75795287 31.11892423 0.02734375 31.09765625 C1.31318359 31.09443359 2.59902344 31.09121094 3.92382812 31.08789062 C5.26171945 31.07953802 6.59961007 31.07107311 7.9375 31.0625 C9.30273274 31.05747659 10.66796726 31.05291517 12.03320312 31.04882812 C15.35551457 31.03708851 18.67773408 31.02066679 22 31 C22.66 29.35 23.32 27.7 24 26 C22.68 25.67 21.36 25.34 20 25 C21.125 23 21.125 23 23 21 C26.1875 20.75 26.1875 20.75 29 21 C29.39833284 25.96167376 28.68214714 28.43649655 25.57421875 32.328125 C21.38527357 36.6999112 17.82395208 37.91084745 11.89453125 38.046875 C8.86052356 38.03635779 5.84230008 37.89974617 2.8125 37.75 C1.26636454 37.71692065 -0.27987161 37.68824131 -1.82617188 37.6640625 C-8.20143768 37.51272444 -13.95002559 37.32028102 -20 35 C-20.10968629 33.00127206 -20.18634064 31.00072285 -20.25 29 C-20.31960937 27.329375 -20.31960937 27.329375 -20.390625 25.625 C-19.52533416 17.59510097 -14.85129075 12.17565015 -9.4375 6.5 C-8.5722168 5.55253906 -8.5722168 5.55253906 -7.68945312 4.5859375 C-3.38641437 0 -3.38641437 0 0 0 Z " fill="#101010" transform="translate(274,229)"/>
<path d="M0 0 C0.99 0.495 0.99 0.495 2 1 C-6.43977555 10.3892503 -14.17731095 16.93544486 -25.74316406 21.99316406 C-30.05382419 23.91626687 -34.27116205 26.02972134 -38.5 28.125 C-39.7367749 28.71909668 -39.7367749 28.71909668 -40.99853516 29.32519531 C-47.27449343 32.40780958 -52.56505813 36.23371111 -57.99414062 40.60595703 C-60.79117087 42.5498522 -63.72228425 43.18057106 -67 44 C-66.86328125 42.1875 -66.86328125 42.1875 -66 40 C-63.41796875 38.4375 -63.41796875 38.4375 -60.1875 37 C-55.92643794 35.0900477 -53.26357953 33.28266479 -50 30 C-47.95783212 28.84093174 -45.86769472 27.76452352 -43.75 26.75 C-42.49858093 26.14216788 -41.24728368 25.5340849 -39.99609375 24.92578125 C-39.34366699 24.61205566 -38.69124023 24.29833008 -38.01904297 23.97509766 C-32.58984351 21.35306348 -27.20565321 18.63923727 -21.82617188 15.91699219 C-20.17767518 15.08921765 -18.51907421 14.28164048 -16.859375 13.4765625 C-10.03016405 10.02380501 -5.11020921 5.67801023 0 0 Z " fill="#191919" transform="translate(448,363)"/>
<path d="M0 0 C0 0.33 0 0.66 0 1 C-1.07378906 1.23203125 -2.14757812 1.4640625 -3.25390625 1.703125 C-9.03606133 3.15343452 -14.44726481 5.45699935 -19.9375 7.75 C-20.97068359 8.16765625 -22.00386719 8.5853125 -23.06835938 9.015625 C-28.86394045 11.42341549 -33.94905396 14.11950046 -39.08569336 17.71972656 C-41.40122279 19.26833469 -43.63870357 20.22980659 -46.3125 21 C-47.11300781 21.2475 -47.91351563 21.495 -48.73828125 21.75 C-51.4624846 22.05112092 -52.7065541 21.42749951 -55 20 C-54.01 19.6596875 -54.01 19.6596875 -53 19.3125 C-50.51398485 18.22486837 -48.55734778 17.10486922 -46.3125 15.625 C-42.59399705 13.23703483 -38.82941698 11.60808021 -34.6875 10.08984375 C-32.46507843 9.18860012 -30.39054505 8.20834843 -28.2578125 7.12109375 C-23.87917224 4.90454838 -19.42307943 2.96570668 -14.875 1.125 C-13.71677734 0.62613281 -13.71677734 0.62613281 -12.53515625 0.1171875 C-7.66859991 -1.8393837 -4.95988817 -2.42448208 0 0 Z " fill="#1C1C1C" transform="translate(309,19)"/>
<path d="M0 0 C1.41152344 -0.00773438 1.41152344 -0.00773438 2.8515625 -0.015625 C5.375 0.25 5.375 0.25 8.375 2.25 C8.125 4.125 8.125 4.125 7.375 6.25 C5.5625 7.625 5.5625 7.625 3.375 8.25 C2.77816406 7.93546875 2.18132812 7.6209375 1.56640625 7.296875 C-1.12086091 6.01311814 -2.90898136 5.98093624 -5.875 6.125 C-7.21304687 6.15207031 -7.21304687 6.15207031 -8.578125 6.1796875 C-13.58121518 7.93718328 -16.80543035 10.75960525 -19.625 15.25 C-20.70076223 19.93724973 -20.70091534 24.45721136 -20.625 29.25 C-20.63660156 30.50167969 -20.64820313 31.75335938 -20.66015625 33.04296875 C-20.68359662 36.11365767 -20.67090156 39.17969553 -20.625 42.25 C-20.955 42.25 -21.285 42.25 -21.625 42.25 C-23.62901036 14.92819165 -23.62901036 14.92819165 -17.93481445 8.08691406 C-12.50764617 2.78805809 -7.62248707 -0.04199717 0 0 Z " fill="#2F2F2F" transform="translate(307.625,148.75)"/>
<path d="M0 0 C0.66 0.33 1.32 0.66 2 1 C1.41992188 1.70125 0.83984375 2.4025 0.2421875 3.125 C-2.18499476 6.07286492 -4.59534831 9.03373558 -7 12 C-7.556875 12.67804688 -8.11375 13.35609375 -8.6875 14.0546875 C-12.66835484 19.0956613 -15.47745884 24.59123626 -18.2890625 30.33984375 C-20 33 -20 33 -22.2109375 33.87890625 C-23.09652344 33.93884766 -23.09652344 33.93884766 -24 34 C-20.81612184 25.60884447 -16.10667183 18.80053923 -10.03125 12.24609375 C-7.28941064 9.21425215 -4.82420275 5.99940954 -2.34765625 2.75 C-1 1 -1 1 0 0 Z " fill="#252525" transform="translate(68,93)"/>
<path d="M0 0 C0.66 0.33 1.32 0.66 2 1 C1.375 2.8125 1.375 2.8125 0 5 C-0.87398437 5.42539063 -1.74796875 5.85078125 -2.6484375 6.2890625 C-6.56435424 8.28809692 -9.6358596 10.76349253 -13 13.5625 C-18.15470294 17.76215032 -23.361689 21.85329993 -28.75 25.75 C-29.33394531 26.17998291 -29.91789062 26.60996582 -30.51953125 27.05297852 C-34.64134183 30 -34.64134183 30 -38 30 C-33.46492422 24.90771354 -28.63378937 21.36412975 -22.83203125 17.81640625 C-19.14872963 15.4540128 -15.81261991 12.76959842 -12.43359375 9.99609375 C-9.24446872 7.38029457 -5.98027343 4.86702994 -2.71484375 2.34765625 C-1.0717138 1.11139558 -1.0717138 1.11139558 0 0 Z " fill="#242424" transform="translate(108,62)"/>
<path d="M0 0 C0.66 0.33 1.32 0.66 2 1 C-6.17905391 9.84122619 -13.64740756 17.36842088 -25 22 C-25.66 22 -26.32 22 -27 22 C-26.70288086 20.11181641 -26.70288086 20.11181641 -26 18 C-23.52544527 16.63616598 -21.14486275 15.49037579 -18.5625 14.375 C-10.7785091 10.79255557 -5.59902665 6.56808895 0 0 Z " fill="#313131" transform="translate(448,363)"/>
<path d="M0 0 C0.12375 0.639375 0.2475 1.27875 0.375 1.9375 C0.58125 2.618125 0.7875 3.29875 1 4 C1.66 4.33 2.32 4.66 3 5 C-0.52007426 13.07546448 -5.99593792 19.70424574 -13 25 C-13.33 24.34 -13.66 23.68 -14 23 C-13.29875 22.38125 -12.5975 21.7625 -11.875 21.125 C-8.66794085 17.94535161 -6.57351205 14.19622936 -4.33203125 10.3046875 C-3.28713721 8.49680631 -2.15827962 6.73741943 -1 5 C-0.61500109 3.34450469 -0.27206865 1.6777567 0 0 Z " fill="#282828" transform="translate(397,189)"/>
<path d="M0 0 C-1.63019486 4.44013601 -5.06573403 7.06321407 -8.5 10.125 C-9.67726602 11.18990224 -10.85435675 12.2549983 -12.03125 13.3203125 C-13.0109375 14.20460937 -13.990625 15.08890625 -15 16 C-15.66 16.66 -16.32 17.32 -17 18 C-16.09756969 13.01137618 -13.00453632 10.33347386 -9.625 6.75 C-9.03460938 6.1003125 -8.44421875 5.450625 -7.8359375 4.78125 C-6.97742188 3.86085937 -6.97742188 3.86085937 -6.1015625 2.921875 C-5.57900879 2.36081055 -5.05645508 1.79974609 -4.51806641 1.22167969 C-3 0 -3 0 0 0 Z " fill="#242424" transform="translate(274,229)"/>
<path d="M0 0 C0.66 0.33 1.32 0.66 2 1 C0.88053453 6.4989128 -2.07988852 11.33936305 -6.3125 15 C-6.869375 15.33 -7.42625 15.66 -8 16 C-6.42986223 10.03347646 -3.24970218 5.17090975 0 0 Z " fill="#1E1E1E" transform="translate(472,333)"/>
<path d="M0 0 C-1.32 0.99 -2.64 1.98 -4 3 C-3.34 3.66 -2.68 4.32 -2 5 C-3.57701982 5.55978184 -5.16199242 6.09719401 -6.75 6.625 C-7.63171875 6.92664062 -8.5134375 7.22828125 -9.421875 7.5390625 C-12.41017471 8.07333427 -13.49923002 7.62433191 -16 6 C-15.34 5.773125 -14.68 5.54625 -14 5.3125 C-10.66523349 3.85353965 -7.85498602 1.9893386 -4.8671875 -0.07421875 C-3 -1 -3 -1 0 0 Z " fill="#2B2B2B" transform="translate(270,33)"/>
<path d="M0 0 C-3.9050849 3.55007718 -6.97734643 4.81819916 -12 6 C-11.9375 4.1875 -11.9375 4.1875 -11 2 C-4.07110092 -1.7912844 -4.07110092 -1.7912844 0 0 Z " fill="#181818" transform="translate(393,401)"/>
<path d="M0 0 C0.99 0.33 1.98 0.66 3 1 C-0.88672813 4.18005028 -4.89952133 7.10554447 -9 10 C-9 7 -9 7 -7.5390625 5.4296875 C-6.90742188 4.91664063 -6.27578125 4.40359375 -5.625 3.875 C-4.99851563 3.35679687 -4.37203125 2.83859375 -3.7265625 2.3046875 C-2 1 -2 1 0 0 Z " fill="#292929" transform="translate(173,142)"/>
<path d="M0 0 C-3.60957611 3.2910841 -6.12637153 4.54663921 -11 5 C-7.6240914 0.45998499 -5.71800716 -1.77455395 0 0 Z " fill="#101010" transform="translate(118,61)"/>
<path d="M0 0 C0.66 0.33 1.32 0.66 2 1 C1.43457996 2.32031595 0.84693528 3.6311301 0.25 4.9375 C-0.23726562 6.03384766 -0.23726562 6.03384766 -0.734375 7.15234375 C-2 9 -2 9 -4.140625 9.75390625 C-5.06101563 9.87572266 -5.06101563 9.87572266 -6 10 C-2.62068966 1.31034483 -2.62068966 1.31034483 0 0 Z " fill="#171717" transform="translate(50,117)"/>
<path d="M0 0 C0.66 0.33 1.32 0.66 2 1 C-1.63 4.96 -5.26 8.92 -9 13 C-9 8.86218946 -7.28490393 7.79080004 -4.5 4.8125 C-3.6646875 3.91144531 -2.829375 3.01039063 -1.96875 2.08203125 C-0.99421875 1.05142578 -0.99421875 1.05142578 0 0 Z " fill="#2B2B2B" transform="translate(297,151)"/>
<path d="M0 0 C-1.72862285 4.55727842 -4.81669715 5.90834857 -9 8 C-7.13554727 3.64961029 -5.02378599 0 0 0 Z " fill="#343434" transform="translate(274,229)"/>
<path d="M0 0 C0.66 0.33 1.32 0.66 2 1 C-0.83430453 4.2542015 -2.68607774 5.5206753 -7 6 C-2.25 1.125 -2.25 1.125 0 0 Z " fill="#0E0E0E" transform="translate(420,382)"/>
<path d="M0 0 C0.99 0.33 1.98 0.66 3 1 C0.03 4.96 0.03 4.96 -3 9 C-3.66 8.34 -4.32 7.68 -5 7 C-4.34 7 -3.68 7 -3 7 C-2.690625 6.030625 -2.38125 5.06125 -2.0625 4.0625 C-1 1 -1 1 0 0 Z " fill="#141414" transform="translate(257,184)"/>
<path d="M0 0 C0.66 0.33 1.32 0.66 2 1 C2 1.66 2 2.32 2 3 C-3.75 6 -3.75 6 -6 6 C-4.98545548 3.4636387 -4.3146444 2.20648539 -2 0.6875 C-1.34 0.460625 -0.68 0.23375 0 0 Z " fill="#171717" transform="translate(181,137)"/>
<path d="M0 0 C-2.68841859 2.25245881 -4.64641875 3.88213958 -8 5 C-8.66 4.34 -9.32 3.68 -10 3 C-3.375 -1.125 -3.375 -1.125 0 0 Z " fill="#252525" transform="translate(126,56)"/>
<path d="M0 0 C0.99 0.33 1.98 0.66 3 1 C1.8553125 1.8971875 1.8553125 1.8971875 0.6875 2.8125 C-1.3483575 4.46959332 -3.1978279 6.10297674 -5 8 C-5.66 7.67 -6.32 7.34 -7 7 C-4.69 4.69 -2.38 2.38 0 0 Z " fill="#323232" transform="translate(77,85)"/>
<path d="M0 0 C0.33 0.99 0.66 1.98 1 3 C-1.97 5.475 -1.97 5.475 -5 8 C-3.375 2.25 -3.375 2.25 0 0 Z " fill="#0E0E0E" transform="translate(469,341)"/>
<path d="M0 0 C0.33 0.66 0.66 1.32 1 2 C-0.73397418 5.65047197 -2.19333016 7.55609075 -6 9 C-4.68775452 5.06326356 -3.08089673 2.77280706 0 0 Z " fill="#0E0E0E" transform="translate(262,241)"/>
<path d="M0 0 C0.66 0.33 1.32 0.66 2 1 C1 4 1 4 -1.375 5.75 C-4 7 -4 7 -7 6 C-4.69 4.02 -2.38 2.04 0 0 Z " fill="#3F3F3F" transform="translate(398,393)"/>
<path d="M0 0 C0.66 0.33 1.32 0.66 2 1 C-0.97 3.475 -0.97 3.475 -4 6 C-4.66 5.01 -5.32 4.02 -6 3 C-4.03533587 1.93224776 -2.03144641 0.93446535 0 0 Z " fill="#232323" transform="translate(438,373)"/>
<path d="M0 0 C0.99 0.33 1.98 0.66 3 1 C1.71034824 2.37562854 0.37310707 3.70766393 -1 5 C-1.66 5 -2.32 5 -3 5 C-2.625 3.0625 -2.625 3.0625 -2 1 C-1.34 0.67 -0.68 0.34 0 0 Z " fill="#111111" transform="translate(384,402)"/>
<path d="M0 0 C0.66 0.33 1.32 0.66 2 1 C1.01 2.32 0.02 3.64 -1 5 C-2.32 4.67 -3.64 4.34 -5 4 C-3.35 2.68 -1.7 1.36 0 0 Z " fill="#050505" transform="translate(270,32)"/>
</svg>
